{"title":"Xavier de Oliveira - Marcelo Zona Sul (1970)","uid":5692551,"size":805249236,"categoryP":"other","categoryS":"other","magnet":"?xt=urn:btih:f17bdc9854dc495b90ca09b88a3f4e8a31c0fe85&amp;dn=Xavier+de+Oliveira+-+Marcelo+Zona+Sul+%281970%29&amp;tr=udp%3A%2F%2Ftracker.openbittorrent.com%3A80&amp;tr=udp%3A%2F%2Fopen.demonii.com%3A1337&amp;tr=udp%3A%2F%2Ftracker.coppersurfer.tk%3A6969&amp;tr=udp%3A%2F%2Fexodus.desync.com%3A6969","seeders":0,"leechers":1,"uploader":"mfccorrea","files":1,"time":1279142482,"description":"A rebel without a cause, Marcello is a young man of 16 who takes nothing seriously. In the classroom, he always talking, flirting and paying little attention to studying. Son of a government employee, a methodic and a moralist, Marcelo becomes a devil for the family. With a friend of the same age they go after the school girls and others. After some adventures, his father threatens to make him work. Fed up, Marcelo and his friend run away from home to Sao Paulo.\n\n   General\n      Complete name : Marcelo Zona Sul.avi\n      Format : AVI\n      Format/Info : Audio Video Interleave\n      File size : 768 MiB\n      Duration : 1h 43mn\n      Overall bit rate : 1 036 Kbps\n      Writing library : VirtualDub build 30009/release\n   Video #0\n      ID : 0\n      Format : MPEG-4 Visual\n      Format settings, BVOP : No\n      Format settings, QPel : No\n      Format settings, GMC : No warppoints\n      Format settings, Matrix : Default (H.263)\n      Codec ID : DX50\n      Codec ID/Hint : DivX 5\n      Duration : 1h 43mn\n      Bit rate : 800 Kbps\n      Width : 720 pixels\n      Height : 480 pixels\n      Display aspect ratio : 1.500\n      Frame rate : 29.970 fps\n      Standard : NTSC\n      Resolution : 24 bits\n      Colorimetry : 4:2:0\n      Scan type : Progressive\n      Bits/(Pixel*Frame) : 0.077\n      Stream size : 593 MiB (77%)\n      Writing library : DivX 6.6.1.4\n   Audio #1\n      ID : 1\n      Format : MPEG Audio\n      Format version : Version 1\n      Format profile : Layer 3\n      Codec ID : 55\n      Codec ID/Hint : MP3\n      Duration : 1h 43mn\n      Bit rate mode : Constant\n      Bit rate : 224 Kbps\n      Channel(s) : 2 channels\n      Sampling rate : 48.0 KHz\n      Resolution : 16 bits\n      Video delay : 8ms\n      Stream size : 166 MiB (22%)\n      Alignment : Split accross interleaves\n      Interleave, duration : 33 ms (1.00 video frame)\n      Interleave, preload duration : 500 ms\n      Writing library : LAME3.96\n\nReasonable quality TV rip\n\nPortuguese audio, no subtitles\n\nPosted at KG by finofski\n &lt;a href=&quot;\nhttp://www.imdb.com/title/tt0193662/&quot; rel=&quot;nofollow&quot; target=&quot;_NEW&quot;&gt;\nhttp://www.imdb.com/title/tt0193662/&lt;/a&gt;","torrent":{"xt":"urn:btih:f17bdc9854dc495b90ca09b88a3f4e8a31c0fe85","amp;dn":"Xavier+de+Oliveira+-+Marcelo+Zona+Sul+%281970%29","amp;tr":["udp%3A%2F%2Ftracker.openbittorrent.com%3A80","udp%3A%2F%2Fopen.demonii.com%3A1337","udp%3A%2F%2Ftracker.coppersurfer.tk%3A6969","udp%3A%2F%2Fexodus.desync.com%3A6969"],"infoHash":"f17bdc9854dc495b90ca09b88a3f4e8a31c0fe85","infoHashBuffer":{"type":"Buffer","data":[241,123,220,152,84,220,73,91,144,202,9,184,138,63,78,138,49,192,254,133]},"announce":[],"urlList":[]}}